<svg width="16" height="16" viewBox="0 0 16 16" fill="none" xmlns="http://www.w3.org/2000/svg">
    <path fill-rule="evenodd" clip-rule="evenodd"
          d="M8.51952 1.79634C9.27782 1.06328 10.2934 0.65765 11.3476 0.666819C12.4018 0.675988 13.4103 1.09922 14.1557 1.84536C14.9012 2.5915 15.324 3.60084 15.3332 4.65601C15.3423 5.71117 14.9371 6.72772 14.2047 7.48671L14.1965 7.49502L12.1863 9.50709C11.7787 9.91521 11.2882 10.2308 10.748 10.4325C10.2078 10.6342 9.63062 10.7172 9.05556 10.676C8.48049 10.6348 7.92101 10.4703 7.41506 10.1936C6.90911 9.91691 6.46853 9.53456 6.12319 9.07246C5.90152 8.77584 5.96206 8.35551 6.25841 8.13363C6.55477 7.91175 6.97471 7.97235 7.19639 8.26897C7.42661 8.57703 7.72033 8.83194 8.05763 9.01639C8.39493 9.20084 8.76792 9.31053 9.1513 9.33801C9.53467 9.36549 9.91947 9.31012 10.2796 9.17567C10.6397 9.04121 10.9667 8.8308 11.2385 8.55872L13.2445 6.55083C13.7304 6.04527 13.9991 5.36927 13.993 4.66766C13.9869 3.96422 13.705 3.29132 13.208 2.7939C12.7111 2.29647 12.0388 2.01432 11.336 2.0082C10.6347 2.0021 9.95906 2.27133 9.45389 2.75803L8.30493 3.90135C8.04247 4.16252 7.61819 4.16128 7.35726 3.89859C7.09633 3.63589 7.09757 3.21122 7.36002 2.95005L8.5126 1.80313L8.51952 1.79634Z"
          fill="#2E3238"/>
    <path fill-rule="evenodd" clip-rule="evenodd"
          d="M5.252 5.5675C5.79218 5.36581 6.36937 5.28276 6.94444 5.32398C7.5195 5.36521 8.07899 5.52974 8.58494 5.80641C9.09089 6.08309 9.53147 6.46544 9.87681 6.92754C10.0985 7.22416 10.0379 7.64449 9.74159 7.86637C9.44523 8.08825 9.02529 8.02765 8.80361 7.73103C8.57339 7.42297 8.27967 7.16806 7.94237 6.98361C7.60507 6.79916 7.23208 6.68948 6.8487 6.66199C6.46533 6.63451 6.08053 6.68988 5.72041 6.82434C5.36029 6.95879 5.03327 7.1692 4.76154 7.44128L2.75549 9.44917C2.26963 9.95474 2.00089 10.6307 2.00698 11.3323C2.01308 12.0358 2.29498 12.7087 2.79195 13.2061C3.28892 13.7035 3.96121 13.9857 4.66401 13.9918C5.36497 13.9979 6.04034 13.7289 6.54545 13.2426L7.68699 12.1C7.94868 11.8381 8.37297 11.8381 8.63466 12.1C8.89635 12.362 8.89635 12.7866 8.63466 13.0486L7.48878 14.1955L7.48047 14.2037C6.72218 14.9367 5.70656 15.3424 4.65236 15.3332C3.59816 15.324 2.58974 14.9008 1.84428 14.1546C1.09882 13.4085 0.675979 12.3992 0.666819 11.344C0.657658 10.2888 1.06291 9.27229 1.79531 8.51329L1.80347 8.50498L3.8137 6.49291C4.22128 6.08483 4.71186 5.76917 5.252 5.5675Z"
          fill="#2E3238"/>
</svg>
