<svg width="26" height="24" viewBox="0 0 26 24" fill="none" xmlns="http://www.w3.org/2000/svg">
    <path d="M16.4482 23.4097C15.7177 23.6657 14.9648 23.8553 14.2006 23.9761L14.4324 23.8913L11.7029 23.9553L12.4807 23.7665L11.6395 23.7225C11.6532 23.7225 11.6676 23.7089 11.6812 23.6809C11.6862 23.687 11.6925 23.6919 11.6997 23.6953C11.7069 23.6989 11.7148 23.7011 11.7229 23.7017C11.728 23.6956 11.7343 23.6907 11.7414 23.6873C11.7486 23.6836 11.7565 23.6814 11.7646 23.6809L11.7855 23.6601H11.6395L12.3107 23.5129H12.3315C12.3194 23.5038 12.3055 23.4972 12.2908 23.4935C12.2761 23.4898 12.2608 23.489 12.2457 23.4913L12.6242 23.4489L11.6965 23.3865L12.3259 23.3449L11.5754 23.2593L11.5962 23.2177C11.8724 23.0925 12.1788 23.0489 12.4791 23.0921C12.7028 23.1705 12.9377 23.2137 13.1751 23.2177C13.4269 23.1473 13.6931 23.0641 13.9729 22.9665L13.8462 22.9249L13.1751 22.9873L13.6393 22.8625L13.0716 22.7153L12.8191 22.6945L12.9417 22.6809L11.7823 22.3673L11.9082 22.3881C12.5309 22.0112 13.213 21.7421 13.9256 21.5921L13.2946 21.6337L13.4212 21.4881L13.7572 21.3201L13.2529 21.2785C13.4076 21.2649 13.5624 21.2441 13.7163 21.2161L13.0861 21.2785C13.0946 21.2707 13.1047 21.2649 13.1157 21.2617C13.1266 21.258 13.138 21.2567 13.1494 21.2577L13.2761 21.2161H13.406V21.2369C13.4669 21.2121 13.5295 21.1905 13.5936 21.1745H13.4685L13.7412 21.1329L13.5094 21.1121H13.4244C13.6145 21.0025 13.8109 20.9041 14.0122 20.8177C14.0722 20.7886 14.1359 20.7676 14.2014 20.7553H14.118C14.2335 20.6993 14.353 20.6497 14.4749 20.6097L13.7187 20.7353L14.3281 20.5265C15.887 20.1957 17.308 19.3993 18.4023 18.2433C19.2009 17.4864 19.8334 16.5724 20.26 15.5593C20.6866 14.5461 20.898 13.4557 20.8808 12.3569C20.8959 11.2519 20.6837 10.1557 20.2574 9.1358C19.8311 8.11592 19.1998 7.19409 18.4023 6.42726C17.1429 5.12857 15.4749 4.30056 13.677 4.08166C13.2875 4.02775 12.8948 4.00022 12.5015 3.99926C11.3978 3.98324 10.3022 4.19032 9.28075 4.60801C8.25933 5.0257 7.33325 5.64536 6.55827 6.42966C5.97853 7.01366 5.48379 7.67526 5.08848 8.39686C4.78516 8.75542 4.51793 9.14288 4.29065 9.55366C3.92275 10.6888 3.82232 11.8934 3.99718 13.0737C4.14774 14.3185 4.54167 15.5218 5.15664 16.6153C3.94764 14.6414 3.56326 12.2729 4.08618 10.0193C4.05467 10.0584 4.02927 10.1021 4.01081 10.1489C3.93362 10.4216 3.89158 10.7031 3.88572 10.9865H3.82638C3.6731 12.2106 3.78077 13.4532 4.14231 14.6329C4.11753 14.5855 4.09661 14.5363 4.07977 14.4857L3.82638 13.5393L3.88892 14.2337L3.5746 12.5153V12.7049L3.49041 12.3481L3.70049 14.4425L3.40702 13.2857L3.59545 14.3537C3.41801 13.6539 3.31269 12.9379 3.28113 12.2169C3.32061 13.9983 3.85919 15.7331 4.8359 17.2249C4.97542 17.4481 5.12297 17.6793 5.27612 17.9193L5.90636 18.3377L4.93854 16.9353L5.00188 17.1881L4.45503 16.0305C4.70761 16.4081 4.9666 16.7849 5.23201 17.1625C5.59525 17.7049 6.01862 18.2057 6.49412 18.6537V18.6305C6.19022 18.3009 5.90957 17.9513 5.65378 17.5833C5.73798 17.6993 5.82137 17.7993 5.90636 17.8985L5.33946 17.0801L6.03466 17.9193L5.53191 17.1857C6.2961 18.2279 7.27763 19.0926 8.40892 19.7201C8.67513 19.8593 8.94856 19.9857 9.22841 20.0969L8.93332 20.0345L9.37433 20.2233C9.37333 20.275 9.38815 20.3258 9.41683 20.3689L9.29094 20.3481L9.41683 20.4105L9.43688 20.4521L8.59334 20.2505L9.34627 20.4977L8.25416 20.2881L8.90526 20.6857L8.40089 20.5601L8.75851 20.7689C8.71592 20.7692 8.67368 20.7765 8.63343 20.7905L8.65428 20.8113L8.78017 20.8529L9.20034 20.9785C8.17891 20.8264 7.20632 20.4416 6.35806 19.8539C5.5098 19.2662 4.80867 18.4914 4.30909 17.5897C3.77984 16.7015 3.36368 15.751 3.07024 14.7601L3.28032 15.5561C3.21056 15.3609 3.14722 15.1721 3.09109 14.9905C3.08789 15.0137 3.07816 15.0356 3.06302 15.0537C3.04838 15.0716 3.02931 15.0854 3.0077 15.0937C2.85294 15.1225 2.90186 15.6041 3.15364 16.5393C3.29797 16.8393 3.46635 17.1265 3.65879 17.3985C3.79751 17.5937 3.93784 17.7961 4.07816 18.0065L3.95228 17.6921L5.29616 19.2641L4.51918 18.2585C5.39081 19.3216 6.40068 20.2641 7.52208 21.0609L5.88391 20.0969L7.41783 21.1857C6.75176 20.8597 6.14195 20.4301 5.61129 19.9129C5.20556 19.5217 4.80704 19.1449 4.41494 18.7809L4.62501 19.0753C4.11192 18.482 3.67477 17.8274 3.32362 17.1265C3.43427 17.4889 3.56739 17.9009 3.72214 18.3625L2.33656 15.9089C2.47608 16.2713 2.63725 16.6345 2.81847 16.9977L2.71343 16.6617C3.00209 17.2545 3.33966 17.8217 3.72134 18.3601C4.49508 19.4675 5.4708 20.4198 6.59755 21.1673L5.63454 20.5977L7.56617 21.8337L6.47327 21.3105C6.91428 21.6289 7.39378 21.8897 7.90134 22.0865C8.43297 22.2673 8.97181 22.4345 9.51787 22.5881V22.7353C9.05369 22.752 8.59447 22.6354 8.19483 22.3993C7.97146 22.288 7.73851 22.1969 7.49882 22.1273L8.46504 22.6297L8.08657 22.5257L8.55085 22.6713L8.13068 22.5881C8.58289 22.7531 9.04615 22.8862 9.51706 22.9865V23.1337L8.82106 23.0913L9.51706 23.2801V23.3425C8.0633 23.0951 6.68478 22.5218 5.48539 21.6657L5.37956 21.5825C4.23532 20.8313 3.47918 20.3649 3.11194 20.1841C2.70313 19.941 2.37451 19.5839 2.16657 19.1569C1.83795 18.5594 1.52855 17.9516 1.23884 17.3345C0.951389 16.7653 0.671252 16.1924 0.3985 15.6161C0.286202 15.1253 0.202142 14.6284 0.146725 14.1281C0.0344251 13.1606 0.0344251 12.1835 0.146725 11.2161C0.286246 10.2553 0.513163 9.30806 0.823476 8.38726C1.15223 7.47926 1.5748 6.60726 2.08317 5.78566C2.79419 4.68106 3.67278 3.6933 4.68756 2.85766L4.28824 3.10806C5.89626 1.59992 7.92495 0.613848 10.1064 0.280055L10.63 0.153656C11.3231 0.0303111 12.0273 -0.0187677 12.7309 0.0072555L13.8903 0.0696555L14.0114 0.116056H14.284L15.0169 0.288056L16.3215 0.598456L18.1289 1.37366L18.6116 1.64566L20.6899 3.10806L21.5936 3.98886C22.2698 4.69505 22.8541 5.48339 23.3328 6.33526C23.8365 7.17617 24.2317 8.07716 24.5091 9.01686C24.7874 9.95766 24.9493 10.9289 24.9918 11.9097C25.1122 13.8276 24.7439 15.7448 23.9214 17.4825C23.5784 18.2117 23.1554 18.9007 22.6601 19.5369C22.6166 19.6102 22.5679 19.6802 22.5141 19.7465C21.6913 20.9558 20.6043 21.9631 19.3348 22.6927C18.0654 23.4223 16.6466 23.855 15.1853 23.9585C15.0043 23.9861 14.8215 24 14.6384 24.0001C15.2551 23.8457 15.8596 23.6481 16.4482 23.4097ZM5.88391 20.8953C5.97131 20.9537 6.0555 21.0169 6.13569 21.0841L5.63454 20.5977L3.86807 18.8841C4.41573 19.6681 5.09811 20.3489 5.88391 20.8953ZM5.50624 18.5073L4.03647 16.4537C4.10623 16.6361 4.18401 16.8177 4.2682 16.9977C4.36763 17.1809 4.47988 17.3561 4.60497 17.5225C4.81505 17.8305 5.03957 18.1393 5.27772 18.4481L5.10933 18.0705L5.50624 18.5073ZM2.98685 11.8241C2.97328 12.3074 3.00119 12.791 3.07024 13.2697C3.02855 12.7817 3.02213 12.2921 3.04939 11.8033H3.02775C3.01192 11.8046 2.99724 11.8121 2.98685 11.8241Z"
          fill="url(#paint0_linear_1001_117)"/>
    <defs>
        <linearGradient id="paint0_linear_1001_117" x1="5.67543" y1="2.80006" x2="22.8754" y2="20.0396"
                        gradientUnits="userSpaceOnUse">
            <stop stop-color="#EA5540"/>
            <stop offset="1" stop-color="#8C1D82"/>
        </linearGradient>
    </defs>
</svg>
