<svg width="18" height="18" viewBox="0 0 18 18" fill="#ABB1BA" xmlns="http://www.w3.org/2000/svg">
<path fill-rule="evenodd" clip-rule="evenodd" d="M12.8481 14.0265C11.565 15.0529 9.93753 15.6667 8.16667 15.6667C4.02453 15.6667 0.666667 12.3088 0.666667 8.16667C0.666667 4.02453 4.02453 0.666667 8.16667 0.666667C12.3088 0.666667 15.6667 4.02453 15.6667 8.16667C15.6667 9.93749 15.053 11.565 14.0266 12.848L17.0892 15.9107C17.4147 16.2361 17.4147 16.7637 17.0892 17.0892C16.7638 17.4146 16.2362 17.4146 15.9107 17.0892L12.8481 14.0265ZM2.33333 8.16667C2.33333 4.94501 4.94501 2.33333 8.16667 2.33333C11.3883 2.33333 14 4.94501 14 8.16667C14 9.73812 13.3786 11.1644 12.3681 12.2133C12.3395 12.2353 12.312 12.2594 12.2857 12.2857C12.2595 12.3119 12.2354 12.3394 12.2134 12.3681C11.1645 13.3786 9.73816 14 8.16667 14C4.94501 14 2.33333 11.3883 2.33333 8.16667Z" fill="#2E3238"/>
</svg>
