<svg width="14" height="14" viewBox="0 0 14 14" fill="none" xmlns="http://www.w3.org/2000/svg">
    <path d="M13.3877 1.95915C13.7596 1.58722 13.7596 0.984207 13.3877 0.612279C13.0158 0.240351 12.4128 0.240351 12.0408 0.612279L7 5.65313L1.95915 0.612279C1.58722 0.240351 0.984207 0.240351 0.612279 0.612279C0.240351 0.984207 0.240351 1.58722 0.612279 1.95915L5.65313 7L0.612279 12.0408C0.240351 12.4128 0.240351 13.0158 0.612279 13.3877C0.984207 13.7596 1.58722 13.7596 1.95915 13.3877L7 8.34687L12.0408 13.3877C12.4128 13.7596 13.0158 13.7596 13.3877 13.3877C13.7596 13.0158 13.7596 12.4128 13.3877 12.0408L8.34687 7L13.3877 1.95915Z"
          fill="#2E3238"/>
</svg>
