<svg width="174" height="17" viewBox="0 0 174 17" fill="none" xmlns="http://www.w3.org/2000/svg">
    <path d="M7.49162 6.76322H7.47158C6.55551 6.59982 5.66696 6.30899 4.83191 5.89922C4.57931 5.75851 4.37014 5.55149 4.2271 5.30061C4.08405 5.04972 4.01258 4.76455 4.02044 4.47602C4.0174 4.24935 4.06208 4.02457 4.15158 3.81621C4.24109 3.60785 4.37342 3.42055 4.54004 3.26642C5.0498 2.8392 5.70561 2.62559 6.36984 2.67042C7.25043 2.67861 8.12332 2.83494 8.95178 3.13282C9.58066 3.35812 10.2663 3.37109 10.9033 3.16975C11.5403 2.96841 12.0934 2.56391 12.4775 2.01842L12.6122 1.80722C10.8098 0.601017 8.67384 -0.0114045 6.50455 0.0560188C4.9547 -0.0180336 3.42781 0.451833 2.18903 1.38402C1.65718 1.79254 1.22971 2.32076 0.941521 2.92557C0.653334 3.53037 0.512603 4.1946 0.53082 4.86402C0.506334 5.51758 0.655771 6.16596 0.963933 6.74321C1.2721 7.32046 1.72799 7.80599 2.28525 8.15042C3.59046 8.85943 4.99946 9.35888 6.46045 9.63042C7.34889 9.79362 8.21168 10.0784 9.02234 10.476C9.27632 10.6163 9.48745 10.8227 9.63329 11.0731C9.77914 11.3236 9.85425 11.6088 9.85065 11.8984C9.85358 12.3007 9.70964 12.6903 9.44571 12.9944C9.15829 13.2753 8.81251 13.4896 8.43284 13.6223C8.05318 13.755 7.64891 13.8029 7.24866 13.7624C6.0646 13.7611 4.8926 13.5251 3.80074 13.068C3.18193 12.8014 2.49512 12.7343 1.83622 12.876C1.19741 13.0049 0.623387 13.3513 0.212488 13.856L0 14.1248C0.970186 14.8596 2.0582 15.4249 3.2178 15.7968C4.46466 16.1864 5.76365 16.3808 7.07065 16.376C8.69989 16.4663 10.3111 15.9983 11.6372 15.0496C12.183 14.6309 12.6201 14.0876 12.9117 13.4653C13.2033 12.843 13.3409 12.16 13.313 11.4736C13.3325 10.8566 13.1962 10.2445 12.9167 9.69376C12.6372 9.14299 12.2234 8.67115 11.7133 8.32162C10.4144 7.53518 8.97547 7.0063 7.47559 6.76402M20.3227 0.344019H19.9378V16.0816H23.3858V3.42002C23.3921 3.01713 23.3169 2.61712 23.1646 2.24391C23.0124 1.8707 22.7863 1.53198 22.4997 1.24802C22.2181 0.956878 21.8795 0.726448 21.5051 0.570962C21.1307 0.415477 20.7283 0.338239 20.3227 0.344019ZM39.1091 7.53282L34.6773 0.344019H30.6889V16.0816H34.0222V5.16402L39.0698 12.852L44.1375 5.10562V16.0808H47.5237V0.343219H43.5545L39.1091 7.53282ZM67.9129 5.72642C67.9488 4.97962 67.813 4.23453 67.5158 3.54815C67.2187 2.86178 66.7681 2.25233 66.1986 1.76642C64.8449 0.746362 63.1707 0.241958 61.4773 0.344019H54.8116V16.0816H55.1604C55.9773 16.0793 56.7601 15.7544 57.3376 15.1781C57.9152 14.6017 58.2406 13.8206 58.2427 13.0056V11.204H61.2296C62.9818 11.3023 64.7133 10.7851 66.1232 9.74242C66.7123 9.25643 67.1806 8.64094 67.4913 7.94419C67.8021 7.24744 67.947 6.48836 67.9145 5.72642H67.9129ZM63.599 3.78402C63.8976 4.04648 64.1325 4.37319 64.2859 4.73947C64.4394 5.10576 64.5075 5.50204 64.485 5.89842C64.5045 6.28512 64.4327 6.67098 64.2753 7.0249C64.1179 7.37882 63.8794 7.69091 63.579 7.93602C62.8653 8.43522 62.0033 8.68002 61.1325 8.63042H58.2419V3.01842H61.1125C62.0068 2.96676 62.8897 3.23954 63.5982 3.78642M77.4292 0.344019H73.9997V16.0816H85.6746C85.6541 15.6968 85.5566 15.32 85.3879 14.9734C85.2192 14.6267 84.9827 14.3173 84.6923 14.0632C84.1346 13.5256 83.387 13.229 82.6115 13.2376H77.4284L77.4292 0.344019ZM104.094 3.07282V0.343219H91.6675V16.08H104.211V13.3504H95.0393V9.52562H100.165C100.873 9.52562 101.554 9.25762 102.073 8.77602C102.636 8.30099 103.023 7.65104 103.172 6.93042H95.0409V3.06642L104.094 3.07202V3.07282ZM142.898 0.344019H139.469V16.0816H142.84V5.49122L151.106 16.0816H154.265V0.344019H150.893V10.5888L142.898 0.344019ZM173.86 0.344019H161.433V16.0816H173.995V13.3568H164.825V9.52642H169.927C170.635 9.52642 171.317 9.25842 171.836 8.77682C172.399 8.30175 172.785 7.65178 172.934 6.93122H164.823V3.06722H173.86V0.344019Z"
          fill="#17181D"/>
</svg>
